<?xml version="1.0" encoding="UTF-8" standalone="no"?>
<svg width="16px" height="24px" viewBox="0 0 16 24" version="1.1" xmlns="http://www.w3.org/2000/svg" xmlns:xlink="http://www.w3.org/1999/xlink">
    <!-- Generator: Sketch 42 (36781) - http://www.bohemiancoding.com/sketch -->
    <title>number</title>
    <desc>Created with Sketch.</desc>
    <defs></defs>
    <g id="Page-1" stroke="none" stroke-width="1" fill="none" fill-rule="evenodd">
        <g id="Artboard" transform="translate(-101.000000, -327.000000)">
            <g id="密码" transform="translate(102.000000, 328.000000)">
                <path d="M0.000153125,14.8126348 C0.000153125,13.1977607 0.524759375,11.7130928 1.40054687,10.5133418 L1.40054688,5.75056152 C1.40054688,2.57424805 3.90761875,0 7,0 C10.0924031,0 12.5994531,2.57424805 12.5994531,5.75056152 L12.5994531,10.5133418 C13.4752625,11.7130928 13.9998469,13.1977607 13.9998469,14.8126348 C13.9998469,18.7813701 10.8662969,22 7,22 C3.13374687,22 0.000153125,18.7813701 0.000153125,14.8126348 Z" id="Shape" stroke="#4A4E58" stroke-width="1.07692308" fill-rule="nonzero"></path>
                <path d="M14,14.8809524 C14,10.9492109 10.8659932,7.76190476 7,7.76190476 C3.13400675,7.76190476 0,10.9492109 0,14.8809524" id="Oval" stroke="#4A4E58" stroke-width="1.07692308"></path>
                <path d="M6.29980312,16.9683906 L6.29980312,14.0936602 C6.29980312,13.6963486 6.61305312,13.374708 7,13.374708 C7.38696875,13.374708 7.70024062,13.6963486 7.70024062,14.0936602 L7.70024062,16.9683906 C7.70021875,17.3657021 7.38694687,17.6873428 7,17.6873428 C6.61305312,17.6873428 6.29980312,17.3657021 6.29980312,16.9683906 Z" id="Path" fill="#4A4E58"></path>
            </g>
        </g>
    </g>
</svg>