<?xml version="1.0" encoding="UTF-8" standalone="no"?>
<svg width="22px" height="22px" viewBox="0 0 22 22" version="1.1" xmlns="http://www.w3.org/2000/svg" xmlns:xlink="http://www.w3.org/1999/xlink">
    <!-- Generator: Sketch 42 (36781) - http://www.bohemiancoding.com/sketch -->
    <title>创建直播</title>
    <desc>Created with Sketch.</desc>
    <defs></defs>
    <g id="Page-1" stroke="none" stroke-width="1" fill="none" fill-rule="evenodd">
        <g id="Artboard" transform="translate(-23.000000, -298.000000)" fill-rule="nonzero" fill="#FFFFFF">
            <g id="直播(1)" transform="translate(25.000000, 300.000000)">
                <g id="Group">
                    <path d="M12.8689491,9.41823282 L12.8637564,9.41470839 C12.6089909,9.24413795 11.3637897,8.47105133 9.79884777,7.52121637 C9.3566506,7.24896397 8.94075931,6.99054599 8.62345318,6.79335999 L8.61164122,6.78602754 C8.31040773,6.59882743 8.09273291,6.4636026 8.04803386,6.43802007 C7.88359845,6.34660759 7.71922011,6.3 7.56030073,6.3 C7.05835903,6.3 6.65,6.77907995 6.65,7.36798452 L6.65,13.3877177 C6.65,13.9648134 7.04135437,14.4 7.56030073,14.4 C7.72764634,14.4 7.85866208,14.3496452 7.94971498,14.2504749 L7.98397156,14.2130227 L8.02950752,14.1959069 C8.07850528,14.1774138 8.32164904,14.0221361 8.55680403,13.8719628 C8.8975629,13.6544202 9.35503381,13.3622568 9.85187792,13.0720176 C10.746125,12.5162508 11.4919143,12.0432677 12.0364627,11.6978935 L12.0652413,11.6795826 C12.5155033,11.3940022 12.7872735,11.2216898 12.8794866,11.1703222 C13.1333772,11.0093528 13.3,10.6645456 13.3,10.2941965 C13.2974322,9.92781735 13.1282797,9.58367867 12.8689491,9.41823282 Z M11.8590171,10.5555312 C11.2676963,10.9407275 10.1805395,11.5980142 9.36541924,12.0785323 C8.96689401,12.3196117 8.59324806,12.5625951 8.29304168,12.7578973 L8.27483871,12.7697062 C8.17743285,12.833065 8.08706469,12.8918461 8.00493259,12.9444898 L7.68878673,13.1475701 L7.68878673,7.56207143 L8.00381036,7.76134373 C8.36322869,7.98873048 8.80489326,8.26181336 9.31649757,8.57297631 C10.1810151,9.13735162 11.2763698,9.80128205 11.85255,10.1470209 L12.1823528,10.3449766 L11.8590171,10.5555312 Z" id="Shape"></path>
                    <path d="M16.1805172,2.74785966 L12.2709197,2.74785966 L13.3569974,0.906907752 C13.5167619,0.629364198 13.4305529,0.271636385 13.1562553,0.073291233 C12.8634875,-0.0842634615 12.5132687,0.02204642 12.3215122,0.32703008 L10.8955686,2.74785966 L7.82492486,2.74785966 L6.39535667,0.321176469 C6.20377378,0.020362224 5.85459678,-0.0847153048 5.56521482,0.0727366853 C5.28677177,0.276196044 5.20236417,0.627002217 5.36475492,0.909043811 L6.44959546,2.74785966 L2.81948282,2.74785966 C1.29116058,2.74785966 0,4.02372199 0,5.53393432 L2.12098684e-08,15.2139253 C2.12098684e-08,16.7241788 1.2911823,18 2.81948285,18 L16.1805172,18 C17.7615372,18 19,16.776163 19,15.2139253 L19,5.53391379 C19.0000217,4.02372199 17.7088394,2.74785966 16.1805172,2.74785966 Z M17.8112615,15.2172527 C17.8112615,16.1208661 17.094893,16.8287839 16.1804303,16.8287839 L2.81935262,16.8287839 C1.90488998,16.8287839 1.18852148,16.1208661 1.18852148,15.2172527 L1.18852146,5.53730274 C1.18852146,4.63368931 1.90488995,3.92581257 2.8193526,3.92581257 L16.1804303,3.92581257 C17.094893,3.92581257 17.8112615,4.63368931 17.8112615,5.53730274 L17.8112615,15.2172527 Z" id="Shape"></path>
                </g>
            </g>
        </g>
    </g>
</svg>