<?xml version="1.0" encoding="UTF-8" standalone="no"?>
<svg width="117px" height="29px" viewBox="0 0 117 29" version="1.1" xmlns="http://www.w3.org/2000/svg" xmlns:xlink="http://www.w3.org/1999/xlink">
    <!-- Generator: Sketch 42 (36781) - http://www.bohemiancoding.com/sketch -->
    <title>开开直播</title>
    <desc>Created with Sketch.</desc>
    <defs></defs>
    <g id="Page-1" stroke="none" stroke-width="1" fill="none" fill-rule="evenodd">
        <g id="我的直播空" transform="translate(-31.000000, -15.000000)" fill="#FFFFFF">
            <g id="Group-8" transform="translate(31.000000, 15.000000)">
                <g id="Page-1" transform="translate(0.000000, 1.000000)">
                    <path d="M33.2142857,11.0526316 C33.2142857,12.2734316 32.2228762,13.2631579 31,13.2631579 C29.7771238,13.2631579 28.7857143,12.2734316 28.7857143,11.0526316 C28.7857143,9.83183158 29.7771238,8.84210526 31,8.84210526 C32.2228762,8.84210526 33.2142857,9.83183158 33.2142857,11.0526316" id="Fill-1"></path>
                    <path d="M11.8095238,23.5789474 C10.5866476,23.5789474 9.5952381,24.5686737 9.5952381,25.7894737 C9.5952381,27.0102737 10.5866476,28 11.8095238,28 C13.0324,28 14.0238095,27.0102737 14.0238095,25.7894737 C14.0238095,24.5686737 13.0324,23.5789474 11.8095238,23.5789474" id="Fill-3"></path>
                    <path d="M16.2380952,8.84210526 C15.015219,8.84210526 14.0238095,7.85237895 14.0238095,6.63157895 C14.0238095,5.41077895 15.015219,4.42105263 16.2380952,4.42105263 C17.4609714,4.42105263 18.452381,5.41077895 18.452381,6.63157895 C18.452381,7.85237895 17.4609714,8.84210526 16.2380952,8.84210526 M25.0952381,8.84210526 L25.0940571,8.84166316 C23.871181,8.84166316 22.8797714,7.85193684 22.8797714,6.63113684 C22.8797714,5.41033684 23.871181,4.42061053 25.0940571,4.42061053 L25.1023238,4.42061053 C26.3219524,4.41677895 27.3095238,3.42896842 27.3095238,2.21052632 C27.3095238,0.989726316 26.3181143,0 25.0952381,0 L7.38095238,0 C6.15807619,0 5.16666667,0.989726316 5.16666667,2.21052632 C5.16666667,3.43132632 6.15807619,4.42105263 7.38095238,4.42105263 L7.3818381,4.42105263 C8.6048619,4.42105263 9.59612381,5.41077895 9.59612381,6.63157895 C9.59612381,7.85237895 8.60471429,8.84210526 7.3818381,8.84210526 L6.64285714,8.84210526 L6.64270952,8.84210526 L2.21428571,8.84210526 C0.991409524,8.84210526 0,9.83183158 0,11.0526316 C0,12.2734316 0.991409524,13.2631579 2.21428571,13.2631579 L7.38095238,13.2631579 C8.60382857,13.2631579 9.59509048,14.2527368 9.5952381,15.4735368 L9.5952381,19.8947368 C9.5952381,21.1155368 10.5865,22.1052632 11.8095238,22.1052632 C13.0301857,22.1052632 14.0198238,21.1192211 14.0235143,19.9013684 L14.0233667,16.2105263 C14.0233667,14.9897263 15.0147762,14 16.2376524,14 C17.4605286,14 18.4519381,14.9897263 18.4519381,16.2103789 L18.4522333,25.7934526 C18.4522333,25.7922737 18.452381,25.7908 18.452381,25.7894737 C18.452381,27.0102737 19.4437905,28 20.6666667,28 C21.8895429,28 22.8809524,27.0102737 22.8809524,25.7894737 L22.8809524,15.4735368 C22.8809524,14.2528842 23.8723619,13.2631579 25.0952381,13.2631579 C26.3181143,13.2631579 27.3095238,12.2734316 27.3095238,11.0526316 C27.3095238,9.83183158 26.3181143,8.84210526 25.0952381,8.84210526" id="Fill-5"></path>
                    <path d="M50.1904762,23.5789474 C51.4133524,23.5789474 52.4047619,24.5686737 52.4047619,25.7894737 C52.4047619,27.0102737 51.4133524,28 50.1904762,28 C48.9676,28 47.9761905,27.0102737 47.9761905,25.7894737 C47.9761905,24.5686737 48.9676,23.5789474 50.1904762,23.5789474" id="Fill-7"></path>
                    <path d="M43.547619,6.63157895 C43.547619,5.41077895 44.5390286,4.42105263 45.7619048,4.42105263 C46.984781,4.42105263 47.9761905,5.41077895 47.9761905,6.63157895 C47.9761905,7.85237895 46.984781,8.84210526 45.7619048,8.84210526 C44.5390286,8.84210526 43.547619,7.85237895 43.547619,6.63157895 M34.6904762,11.0526316 C34.6904762,12.2734316 35.6818857,13.2631579 36.9047619,13.2631579 C38.1276381,13.2631579 39.1190476,14.2528842 39.1190476,15.4735368 L39.1190476,25.7894737 C39.1190476,27.0102737 40.1104571,28 41.3333333,28 C42.5562095,28 43.547619,27.0102737 43.547619,25.7894737 C43.547619,25.7908 43.5477667,25.7922737 43.5477667,25.7934526 L43.5480619,16.2103789 C43.5480619,14.9897263 44.5394714,14 45.7623476,14 C46.9852238,14 47.9766333,14.9897263 47.9766333,16.2105263 L47.9764857,19.9013684 C47.9801762,21.1192211 48.9698143,22.1052632 50.1904762,22.1052632 C51.4135,22.1052632 52.4047619,21.1155368 52.4047619,19.8947368 L52.4047619,15.4735368 C52.4049095,14.2528842 53.3961714,13.2631579 54.6190476,13.2631579 L59.7857143,13.2631579 C61.0085905,13.2631579 62,12.2734316 62,11.0526316 C62,9.83183158 61.0085905,8.84210526 59.7857143,8.84210526 L55.3572905,8.84210526 L55.3571429,8.84210526 L54.6181619,8.84210526 C53.3952857,8.84210526 52.4038762,7.85237895 52.4038762,6.63157895 C52.4038762,5.41077895 53.3951381,4.42105263 54.6181619,4.42105263 L54.6190476,4.42105263 C55.8419238,4.42105263 56.8333333,3.43132632 56.8333333,2.21052632 C56.8333333,0.989726316 55.8419238,0 54.6190476,0 L36.9047619,0 C35.6818857,0 34.6904762,0.989726316 34.6904762,2.21052632 C34.6904762,3.42896842 35.6780476,4.41677895 36.8976762,4.42061053 L36.9059429,4.42061053 C38.128819,4.42061053 39.1202286,5.41033684 39.1202286,6.63113684 C39.1202286,7.85193684 38.128819,8.84166316 36.9059429,8.84166316 L36.9047619,8.84210526 C35.6818857,8.84210526 34.6904762,9.83183158 34.6904762,11.0526316" id="Fill-9"></path>
                </g>
                <path d="M92.5060582,19.0134036 C92.0450803,19.354567 91.6199391,19.1696027 91.5566519,18.6018283 L91.2641539,15.9777134 C91.2327217,15.6957227 91.4100974,15.3669284 91.6740316,15.2366649 C91.6740316,15.2366649 93.4013715,14.382744 93.4576315,14.3640164 L93.4576315,7.48164869 L91.8710026,7.48164869 C91.4112029,7.48164869 91.0384615,7.10764213 91.0384615,6.65486066 L91.0384615,6.7634154 C91.0384615,6.30679298 91.4183223,5.93579542 91.8753664,5.93479442 L93.2192292,5.93185114 L93.4123296,4.13848825 C93.5350946,2.99834378 94.5669971,2.07407407 95.7197265,2.07407407 L96.2079526,2.07407407 C96.7863125,2.07407407 97.2186893,2.54711327 97.1754475,3.10788753 L96.9576891,5.93185114 L98.3126278,5.93495688 C98.715125,5.93587947 99.0414134,6.26428666 99.0414134,6.67293838 L99.0414134,6.74533768 C99.0414134,7.15199102 98.7137881,7.48164869 98.3148782,7.48164869 L97.2551658,7.48164869 L97.2551658,12.9173146 C97.7427529,12.7019469 97.7361709,12.6853243 97.7361709,12.6853243 C98.2395366,12.417832 98.7520561,12.6560477 98.8689514,13.215121 C98.8689514,13.215121 98.8500825,13.0529221 98.8969659,13.3806555 C98.8782125,13.408747 98.8500829,13.4462016 98.8125762,13.4930207 C98.2593524,14.1578514 97.6489862,14.4342427 97.2551658,14.8275228 L97.2551658,24.3083354 C97.1895291,26.0031855 96.4112768,26.8880525 94.9203855,26.962963 C93.579521,26.9348715 92.3418185,26.2045051 91.2072408,24.7718418 C91.2728776,24.6501123 91.3947725,24.4675207 91.5729293,24.2240615 C91.5916827,24.1959701 91.6057475,24.1772428 91.6151242,24.1678789 C92.2339847,24.6173419 92.6981231,24.7999335 93.0075534,24.7156592 C93.307607,24.6501125 93.4576315,24.3130203 93.4576315,23.7043725 L93.4576315,18.2967979 C92.6606142,18.9054457 92.5060582,19.0134036 92.5060582,19.0134036 Z" id="播"></path>
                <path d="M100.287135,19.7033044 C100.287135,18.5580455 101.214894,17.6296296 102.35563,17.6296296 L113.795563,17.6296296 C114.937962,17.6296296 115.864058,18.5499308 115.864058,19.7033044 L115.864058,25.9263252 C115.864058,27.0715842 114.9363,28 113.795563,28 L102.35563,28 C101.213232,28 100.287135,27.0796988 100.287135,25.9263252 L100.287135,19.7033044 Z M109.943556,16.4132897 L106.162537,16.4132897 L106.162537,9.71183427 L99.5637139,9.71183427 C99.3897221,9.71183427 99.2486738,9.56717064 99.2486738,9.40530612 L99.2486738,8.97795903 C99.2486738,8.80866821 99.3930796,8.67143089 99.5637139,8.67143089 L106.162537,8.67143089 L106.162537,3.35381359 L99.5727611,3.35381359 L99.5727611,2.3134102 L109.357112,2.3134102 C110.2987,1.9235286 110.828098,1.61485667 111.252036,1.27396065 C111.675975,0.933064631 111.899667,1.06888269 112.569965,1.04180607 C112.569965,1.04180607 116.321038,1.04180607 116.321038,1.04180607 C116.895126,1.04180607 117.024166,1.35323962 116.581809,1.72936391 C116.581809,1.72936391 114.947875,3.43088089 113.147381,3.35381359 L109.943556,3.35381359 L109.943556,8.67143089 L116.542378,8.67143089 C116.71637,8.67143089 116.857418,8.81609452 116.857418,8.97795903 L116.857418,9.40530612 C116.857418,9.57459694 116.713013,9.71183427 116.542378,9.71183427 L109.943556,9.71183427 L109.943556,10.9834384 L112.212167,10.9834384 C114.44478,10.8293038 115.669097,11.6770314 115.885157,13.5266467 C115.974675,14.0375401 116.088919,14.475668 116.22789,14.8410321 C116.424334,15.3574997 116.640106,15.5505052 116.640106,15.5505052 C116.819787,15.7734898 116.739549,15.9571814 116.44997,15.9591089 C116.44997,15.9591089 115.725182,15.976133 115.199041,15.9289607 C113.049582,15.7362461 111.945937,14.8969457 111.888079,13.4110463 C111.67202,12.3321041 111.095871,11.8311741 110.159614,11.9082414 L109.943556,11.9082414 M112.348938,3.93181547 C112.857973,3.93181547 114.474743,3.93181547 115.451962,3.93181547 C115.749799,3.93181547 115.801978,4.12236266 115.808701,4.30938921 C115.844089,5.29383392 115.544659,8.25830963 110.483701,7.74662788 C111.593584,7.0043342 112.343389,5.91145373 112.116163,4.24779195 L112.348938,3.93181547 Z M100.608247,3.93181547 C101.65759,3.93181547 102.660258,3.93181547 103.709679,3.93181547 C103.995613,3.93181547 103.995799,4.12918214 103.995613,4.22549903 C103.992486,5.84550469 104.534741,7.01920361 105.622391,7.74662788 C99.8675635,8.86368544 100.1853,5.12501582 100.30207,4.20214948 L100.608247,3.93181547 Z M106.178068,11.1641123 L106.178068,11.994233 L106.130776,11.994233 C105.230772,11.9250559 104.676931,12.3747002 104.469238,13.3431792 C104.415624,14.628908 103.427833,15.3752964 101.505844,15.582355 C100.945986,15.6426693 100.1161,15.6279812 100.1161,15.6279812 C99.8222286,15.6277284 99.7336495,15.4471251 99.9127394,15.2264579 C99.9127394,15.2264579 100.186535,14.9750057 100.388437,14.3826011 C100.481772,14.108742 100.56127,13.7968566 100.62693,13.4469443 C100.834623,11.7866945 102.011535,11.0257581 104.157699,11.1641123 L106.178068,11.1641123 Z M111.17392,22.1407954 C111.756087,22.507441 111.767139,23.1181876 111.201689,23.5028391 L107.122491,26.2777402 C106.555661,26.6633305 106.096154,26.4237679 106.096154,25.738351 L106.096154,20.1804073 C106.096154,19.4969206 106.56713,19.2394634 107.15026,19.6067158 L111.17392,22.1407954 Z" id="Combined-Shape"></path>
                <path d="M78.2718565,2.09683908e-17 C78.8485918,-1.88624966e-17 79.2410973,0.46371108 79.1470356,1.04503875 L78.7422021,3.54702122 L87.535368,3.54702122 C88.2267759,3.54702122 88.7872727,4.10978557 88.7872727,4.81824329 L88.7872727,4.60057897 C88.7872727,5.30265554 88.2227882,5.87180104 87.5330882,5.87180104 L78.5590203,5.87180104 L78.3053839,7.44528007 L82.8127273,7.44528007 C85.1424359,7.48308156 86.3260604,8.51788174 86.3636364,10.5497117 L86.3636364,24.654321 L88.7383818,24.654321 C89.4351543,24.654321 90,25.2131788 90,25.9167187 L90,25.7005653 C90,26.3977683 89.4360666,26.962963 88.7339481,26.962963 L64.2660519,26.962963 C63.5668307,26.962963 63,26.4041051 63,25.7005653 L63,25.9167187 C63,25.2195157 63.5616052,24.654321 64.2619393,24.654321 L66.4954545,24.654321 L66.4954545,10.6016834 C66.4954545,8.85844998 67.9044913,7.44528007 69.646126,7.44528007 L74.5846872,7.44528007 L74.8383235,5.87180104 L65.4609295,5.87180104 C64.7637843,5.87180104 64.1986364,5.3090367 64.1986364,4.60057897 L64.1986364,4.81824329 C64.1986364,4.11616673 64.7652826,3.54702122 65.4613385,3.54702122 L75.0215053,3.54702122 L75.3262896,1.56610017 C75.4593681,0.701166931 76.2723849,1.59057252e-16 77.1353899,9.94558132e-17 L78.2718565,2.09683908e-17 Z M78.7968182,13.0162464 L70.6522727,13.0162464 L70.6522727,24.654321 L82.2068182,24.654321 L82.2068182,22.1310843 L72.3572727,22.1310843 C71.8218155,22.1121836 71.4742432,21.8853781 71.3145455,21.450661 C71.2018176,20.9970431 71.3756038,20.6710102 71.8359091,20.4725524 C74.4662253,19.4897137 77.0260482,18.554141 79.5154545,17.665806 C79.6563643,17.6185541 79.7268182,17.5760281 79.7268182,17.5382266 C79.7080302,17.5004251 79.6187887,17.4815247 79.4590909,17.4815247 L72.2445455,17.4815247 C71.8218161,17.4815247 71.5353038,17.3208708 71.385,16.9995581 C71.2534842,16.5742914 71.3380288,16.271884 71.6386364,16.092327 C73.3295539,15.4024498 75.7719537,14.4905026 78.9659091,13.356458 C79.2665167,13.2619543 79.4027274,13.1816274 79.3745455,13.1154748 C79.3369695,13.0493222 79.1443957,13.0162464 78.7968182,13.0162464 Z M70.6522727,9.00458361 L70.6522727,11.4994693 L80.2622727,11.4994693 C80.8165179,11.5089196 81.178181,11.6931991 81.3472727,12.0523133 C81.4881825,12.4964807 81.3472748,12.8272388 80.9245455,13.0445973 C77.796348,14.282596 75.5089466,15.1614674 74.0622727,15.6812379 C73.8086351,15.7757416 73.7006059,15.8513434 73.7381818,15.9080457 C73.7757578,15.9552975 73.9589377,15.9789231 74.2877273,15.9789231 L80.7272727,15.9789231 C81.1875781,15.9883735 81.497575,16.1915534 81.6572727,16.588469 C81.7700006,17.0231861 81.6337898,17.3303186 81.2486364,17.5098757 C80.7413611,17.7177838 78.9753182,18.3745748 75.9504545,19.4802683 C74.6446904,19.9527869 73.8415167,20.245744 73.5409091,20.3591485 C73.3812113,20.4158507 73.3201513,20.4725521 73.3577273,20.5292543 C73.4140912,20.5859566 73.545605,20.6143072 73.7522727,20.6143072 L82.2068182,20.6143072 L82.2068182,10.0819206 C82.1880302,9.39204347 81.713641,9.03293473 80.7836364,9.00458361 L70.6522727,9.00458361 Z" id="直播"></path>
            </g>
        </g>
    </g>
</svg>